<svg xmlns="http://www.w3.org/2000/svg" viewBox="0 0 398.54 397.6"><defs><style>.cls-1{font-size:126.67px;stroke:#000;stroke-linejoin:round;stroke-width:5px;font-family:Consolas, Consolas;}.cls-2{letter-spacing:-0.03em;}.cls-3{letter-spacing:-0.03em;}.cls-4{letter-spacing:-0.05em;}.cls-5{letter-spacing:-0.02em;}.cls-6{letter-spacing:-0.06em;}</style></defs><title>Asset 2</title><g id="Layer_2" data-name="Layer 2"><g id="Layer_5" data-name="Layer 5"><path d="M313.2,66.15A24.78,24.78,0,0,0,270.06,49.5l-45.62-21a24.79,24.79,0,1,0-49.1-.57L128.48,49.5A24.78,24.78,0,1,0,105,90.4l4.83,49.33a24.78,24.78,0,1,0,24.63,42.58l41.86,29.85a24.79,24.79,0,1,0,47.08-.21L264,182.45a24.78,24.78,0,1,0,24.5-42.69l4.94-49.34A24.82,24.82,0,0,0,313.2,66.15ZM199.93,34.69a9.9,9.9,0,1,1,9.9-9.9A9.91,9.91,0,0,1,199.93,34.69Zm88.48,21.56a9.9,9.9,0,1,1-9.9,9.9A9.91,9.91,0,0,1,288.41,56.25ZM255.25,170.42l-40.58,29.5a24.87,24.87,0,0,0-7.29-3.72V140.72a24.79,24.79,0,0,0,16.76-29l47.51-27.35a24.94,24.94,0,0,0,7,4.54l-4.95,49.34a24.79,24.79,0,0,0-18.45,32.15ZM124.67,138.28l-4.83-49.33A24.92,24.92,0,0,0,127,84.28l48.68,27.61a24.7,24.7,0,0,0-.55,5.19,25,25,0,0,0,17.35,23.64V196.2a24.84,24.84,0,0,0-7.47,3.86L143.15,170.2a24.79,24.79,0,0,0-18.47-31.92Zm10-75.26,46.86-21.58a24.75,24.75,0,0,0,36.3.43L263.82,63a24.81,24.81,0,0,0,.38,8.48L216.69,98.85A24.74,24.74,0,0,0,183,99L134.37,71.34a24.72,24.72,0,0,0,.35-8.32Zm65.21,44.17a9.9,9.9,0,1,1-9.9,9.9A9.91,9.91,0,0,1,199.93,107.19Zm0,102.75a9.9,9.9,0,1,1-9.9,9.9A9.91,9.91,0,0,1,199.93,209.94ZM110.13,56.25a9.9,9.9,0,1,1-9.9,9.9A9.91,9.91,0,0,1,110.13,56.25Zm9.44,116.19a9.9,9.9,0,1,1,9.9-9.9A9.91,9.91,0,0,1,119.57,172.43Zm159.18-19.8a9.9,9.9,0,1,1-9.9,9.9A9.91,9.91,0,0,1,278.75,152.63Z"/><text class="cls-1" transform="translate(2.5 356.81)"><tspan class="cls-2">B</tspan><tspan class="cls-3" x="65.67" y="0">o</tspan><tspan class="cls-4" x="131.62" y="0">t</tspan><tspan class="cls-5" x="194.45" y="0">b</tspan><tspan class="cls-6" x="261.32" y="0">o</tspan><tspan x="323.9" y="0">x</tspan></text></g></g></svg>