<svg xmlns="http://www.w3.org/2000/svg" viewBox="0 0 637.91 244.63"><defs><style>.cls-1{stroke:#000;stroke-linejoin:round;stroke-width:5px;}</style></defs><title>Asset 5</title><g id="Layer_2" data-name="Layer 2"><g id="Layer_2-2" data-name="Layer 2"><path d="M227.86,66.15A24.78,24.78,0,0,0,184.72,49.5l-45.62-21A24.79,24.79,0,1,0,90,27.92L43.14,49.5A24.78,24.78,0,1,0,19.68,90.4l4.83,49.33a24.78,24.78,0,1,0,24.63,42.58L91,212.17a24.79,24.79,0,1,0,47.08-.21l40.58-29.5a24.78,24.78,0,1,0,24.5-42.69l4.94-49.34A24.82,24.82,0,0,0,227.86,66.15ZM114.59,34.69a9.9,9.9,0,1,1,9.9-9.9A9.91,9.91,0,0,1,114.59,34.69Zm88.48,21.56a9.9,9.9,0,1,1-9.9,9.9A9.91,9.91,0,0,1,203.07,56.25ZM169.91,170.42l-40.58,29.5A24.87,24.87,0,0,0,122,196.2V140.72a24.79,24.79,0,0,0,16.76-29L186.3,84.39a24.94,24.94,0,0,0,7,4.54l-4.95,49.34a24.79,24.79,0,0,0-18.45,32.15ZM39.33,138.28,34.5,88.95a24.92,24.92,0,0,0,7.17-4.67L90.35,111.9a24.7,24.7,0,0,0-.55,5.19,25,25,0,0,0,17.35,23.64V196.2a24.84,24.84,0,0,0-7.47,3.86L57.8,170.2a24.79,24.79,0,0,0-18.47-31.92ZM49.38,63,96.24,41.44a24.75,24.75,0,0,0,36.3.43L178.48,63a24.81,24.81,0,0,0,.38,8.48L131.35,98.85A24.74,24.74,0,0,0,97.71,99L49,71.34A24.72,24.72,0,0,0,49.38,63Zm65.21,44.17a9.9,9.9,0,1,1-9.9,9.9A9.91,9.91,0,0,1,114.59,107.19Zm0,102.75a9.9,9.9,0,1,1-9.9,9.9A9.91,9.91,0,0,1,114.59,209.94ZM24.79,56.25a9.9,9.9,0,1,1-9.9,9.9A9.91,9.91,0,0,1,24.79,56.25Zm9.44,116.19a9.9,9.9,0,1,1,9.9-9.9A9.91,9.91,0,0,1,34.23,172.43Zm159.18-19.8a9.9,9.9,0,1,1-9.9,9.9A9.91,9.91,0,0,1,193.41,152.63Z"/></g><g id="Layer_4" data-name="Layer 4"><path class="cls-1" d="M308.48,130.69a22.6,22.6,0,0,1-2.26,10.3,21.2,21.2,0,0,1-6.43,7.58,30,30,0,0,1-10.08,4.7,50,50,0,0,1-13.14,1.61H255.41V74h23.13q27,0,27,19.67A19.87,19.87,0,0,1,302.45,105q-3.12,4.7-10.17,7a23.29,23.29,0,0,1,6.22,2.1,18.63,18.63,0,0,1,5.16,3.83,17.57,17.57,0,0,1,3.53,5.57A19.17,19.17,0,0,1,308.48,130.69Zm-14.35-35.5a14.48,14.48,0,0,0-.74-4.67,8.44,8.44,0,0,0-2.6-3.77,13.57,13.57,0,0,0-5-2.5,28.83,28.83,0,0,0-8-.93H266.42v25.3h11a26.89,26.89,0,0,0,6.83-.8,14.76,14.76,0,0,0,5.26-2.47,11.36,11.36,0,0,0,3.4-4.17A13.63,13.63,0,0,0,294.13,95.19Zm2.66,35.87a11.8,11.8,0,0,0-1.3-5.57,11.57,11.57,0,0,0-3.77-4.17,19.07,19.07,0,0,0-6-2.63,31.77,31.77,0,0,0-8-.93H266.42v27.83h11.63q9.46,0,14.1-3.53T296.79,131.06Z"/><path class="cls-1" d="M375.26,123.33a41.15,41.15,0,0,1-2,13.27,29.51,29.51,0,0,1-5.87,10.33A26.36,26.36,0,0,1,358,153.6,31.19,31.19,0,0,1,345.51,156a32.61,32.61,0,0,1-12-2.07,23.67,23.67,0,0,1-9-6.09,27,27,0,0,1-5.63-10A43.83,43.83,0,0,1,317,124.19a40.6,40.6,0,0,1,2-13.2,29.59,29.59,0,0,1,5.88-10.27A26.36,26.36,0,0,1,334.25,94a31.2,31.2,0,0,1,12.49-2.38,32.61,32.61,0,0,1,12,2.07,23.85,23.85,0,0,1,9,6.06,26.66,26.66,0,0,1,5.63,9.93A43.61,43.61,0,0,1,375.26,123.33Zm-11,.49A35.7,35.7,0,0,0,363,113.77a20.26,20.26,0,0,0-3.62-7.17,14.94,14.94,0,0,0-5.72-4.33,18.81,18.81,0,0,0-7.51-1.45,16.91,16.91,0,0,0-8.26,1.89,16.35,16.35,0,0,0-5.63,5,21.72,21.72,0,0,0-3.22,7.33,36.72,36.72,0,0,0-1,8.75,36,36,0,0,0,1.27,10.08,20.2,20.2,0,0,0,3.62,7.21,15,15,0,0,0,5.69,4.33,18.72,18.72,0,0,0,7.55,1.45,16.9,16.9,0,0,0,8.26-1.89,16.36,16.36,0,0,0,5.63-5,21.74,21.74,0,0,0,3.22-7.33A37,37,0,0,0,364.25,123.82Z"/><path class="cls-1" d="M437.2,154a52.56,52.56,0,0,1-7.55,1.33,77.22,77.22,0,0,1-7.92.4q-11.69,0-17.44-5.29t-5.75-16.24V101.8H381.16v-9h17.38V75.7l10.76-2.78V92.77H437.2v9H409.3v31.54q0,6.68,3.56,10t10.48,3.31a50.08,50.08,0,0,0,6.49-.46,61.63,61.63,0,0,0,7.36-1.45Z"/><path class="cls-1" d="M503.06,122.71a41.67,41.67,0,0,1-2.13,13.82,29.13,29.13,0,0,1-6.06,10.33,26.06,26.06,0,0,1-9.56,6.49,33.8,33.8,0,0,1-12.68,2.26,62.55,62.55,0,0,1-11.26-1.05A57.67,57.67,0,0,1,450,151.22V67.48h10.76V91.54l-.5,11.5a27.94,27.94,0,0,1,9.93-8.81,25.66,25.66,0,0,1,11.35-2.57,19,19,0,0,1,9.34,2.23,19.4,19.4,0,0,1,6.74,6.28,29.72,29.72,0,0,1,4.08,9.77A55.34,55.34,0,0,1,503.06,122.71Zm-11,.5a52.54,52.54,0,0,0-.71-9,23.43,23.43,0,0,0-2.26-7,12.41,12.41,0,0,0-4-4.55,10,10,0,0,0-5.75-1.64,14,14,0,0,0-4.14.65,16.8,16.8,0,0,0-4.36,2.17,32.47,32.47,0,0,0-4.76,4,63.22,63.22,0,0,0-5.35,6.22v30.12a41.82,41.82,0,0,0,6.43,1.95,29.46,29.46,0,0,0,6.25.71,21.35,21.35,0,0,0,7.08-1.18,14.61,14.61,0,0,0,5.94-3.93,19.66,19.66,0,0,0,4.08-7.3A36.12,36.12,0,0,0,492,123.2Z"/><path class="cls-1" d="M570.91,123.33a41.17,41.17,0,0,1-2,13.27A29.53,29.53,0,0,1,563,146.92a26.36,26.36,0,0,1-9.34,6.68A31.19,31.19,0,0,1,541.16,156a32.6,32.6,0,0,1-12-2.07,23.67,23.67,0,0,1-9-6.09,27,27,0,0,1-5.63-10,43.83,43.83,0,0,1-1.95-13.67,40.59,40.59,0,0,1,2-13.2,29.59,29.59,0,0,1,5.88-10.27A26.35,26.35,0,0,1,529.91,94a31.2,31.2,0,0,1,12.49-2.38,32.6,32.6,0,0,1,12,2.07,23.85,23.85,0,0,1,9,6.06,26.66,26.66,0,0,1,5.63,9.93A43.61,43.61,0,0,1,570.91,123.33Zm-11,.49a35.7,35.7,0,0,0-1.27-10.05A20.26,20.26,0,0,0,555,106.6a14.93,14.93,0,0,0-5.72-4.33,18.8,18.8,0,0,0-7.51-1.45,16.91,16.91,0,0,0-8.26,1.89,16.35,16.35,0,0,0-5.63,5,21.71,21.71,0,0,0-3.22,7.33,36.77,36.77,0,0,0-1,8.75,36,36,0,0,0,1.27,10.08,20.2,20.2,0,0,0,3.62,7.21,15,15,0,0,0,5.69,4.33,18.72,18.72,0,0,0,7.55,1.45A16.9,16.9,0,0,0,550,145a16.34,16.34,0,0,0,5.63-5,21.73,21.73,0,0,0,3.22-7.33A37,37,0,0,0,559.91,123.82Z"/><path class="cls-1" d="M635.41,154.87H621.12l-16.76-23.69-16.58,23.69H573.87l24.06-31.17L575,92.77h13.79l16.33,23.87,16-23.87h13.3L611.1,123.95Z"/></g></g></svg>