<svg xmlns="http://www.w3.org/2000/svg" viewBox="0 0 637.91 244.63"><title>botbox-banner</title><g id="Layer_2" data-name="Layer 2"><g id="Layer_2-2" data-name="Layer 2"><path d="M227.86,66.15A24.78,24.78,0,0,0,184.72,49.5l-45.62-21A24.79,24.79,0,1,0,90,27.92L43.14,49.5A24.78,24.78,0,1,0,19.68,90.4l4.83,49.33a24.78,24.78,0,1,0,24.63,42.58L91,212.17a24.79,24.79,0,1,0,47.08-.21l40.58-29.5a24.78,24.78,0,1,0,24.5-42.69l4.94-49.34A24.82,24.82,0,0,0,227.86,66.15ZM114.59,34.69a9.9,9.9,0,1,1,9.9-9.9A9.91,9.91,0,0,1,114.59,34.69Zm88.48,21.56a9.9,9.9,0,1,1-9.9,9.9A9.91,9.91,0,0,1,203.07,56.25ZM169.91,170.42l-40.58,29.5A24.87,24.87,0,0,0,122,196.2V140.72a24.79,24.79,0,0,0,16.76-29L186.3,84.39a24.94,24.94,0,0,0,7,4.54l-4.95,49.34a24.79,24.79,0,0,0-18.45,32.15ZM39.33,138.28,34.5,88.95a24.92,24.92,0,0,0,7.17-4.67L90.35,111.9a24.7,24.7,0,0,0-.55,5.19,25,25,0,0,0,17.35,23.64V196.2a24.84,24.84,0,0,0-7.47,3.86L57.8,170.2a24.79,24.79,0,0,0-18.47-31.92ZM49.38,63,96.24,41.44a24.75,24.75,0,0,0,36.3.43L178.48,63a24.81,24.81,0,0,0,.38,8.48L131.35,98.85A24.74,24.74,0,0,0,97.71,99L49,71.34A24.72,24.72,0,0,0,49.38,63Zm65.21,44.17a9.9,9.9,0,1,1-9.9,9.9A9.91,9.91,0,0,1,114.59,107.19Zm0,102.75a9.9,9.9,0,1,1-9.9,9.9A9.91,9.91,0,0,1,114.59,209.94ZM24.79,56.25a9.9,9.9,0,1,1-9.9,9.9A9.91,9.91,0,0,1,24.79,56.25Zm9.44,116.19a9.9,9.9,0,1,1,9.9-9.9A9.91,9.91,0,0,1,34.23,172.43Zm159.18-19.8a9.9,9.9,0,1,1-9.9,9.9A9.91,9.91,0,0,1,193.41,152.63Z"/></g><g id="Layer_4" data-name="Layer 4"><path d="M305.47,116.16a21.2,21.2,0,0,0-5.85-4.35l-.53-.26a17.93,17.93,0,0,0,5.45-5.22,22.41,22.41,0,0,0,3.54-12.64c0-10.11-5.12-22.17-29.53-22.17H255.41a2.5,2.5,0,0,0-2.5,2.5v80.84a2.5,2.5,0,0,0,2.5,2.5h21.15a52.69,52.69,0,0,0,13.8-1.7,32.61,32.61,0,0,0,10.91-5.1,23.77,23.77,0,0,0,7.18-8.46A25.17,25.17,0,0,0,311,130.69a21.73,21.73,0,0,0-1.48-8.17A20.13,20.13,0,0,0,305.47,116.16Zm-14.8-16.09a8.83,8.83,0,0,1-2.66,3.27,12.35,12.35,0,0,1-4.38,2,24.53,24.53,0,0,1-6.2.72h-8.51V85.81h8.88a26.55,26.55,0,0,1,7.27.83,11.2,11.2,0,0,1,4.1,2A5.93,5.93,0,0,1,291,91.32a12.07,12.07,0,0,1,.61,3.87A11.25,11.25,0,0,1,290.67,100.07Zm-21.75,20.19h8.76a29.43,29.43,0,0,1,7.38.85,16.69,16.69,0,0,1,5.24,2.27,9,9,0,0,1,3,3.28,9.25,9.25,0,0,1,1,4.41c0,4.2-1.19,7.15-3.65,9-2.63,2-6.87,3-12.59,3h-9.13Z"/><path d="M369.52,98.1a26.45,26.45,0,0,0-9.89-6.69,35.24,35.24,0,0,0-12.88-2.24,33.82,33.82,0,0,0-13.49,2.59A29,29,0,0,0,323,99.06a32.23,32.23,0,0,0-6.38,11.12,43.29,43.29,0,0,0-2.18,14,46.51,46.51,0,0,0,2.07,14.45,29.56,29.56,0,0,0,6.16,10.87,26.25,26.25,0,0,0,9.9,6.73,35.23,35.23,0,0,0,12.88,2.24A33.81,33.81,0,0,0,359,155.9a29,29,0,0,0,10.21-7.31,32.11,32.11,0,0,0,6.38-11.19,43.84,43.84,0,0,0,2.17-14.07,46.27,46.27,0,0,0-2.07-14.39A29.25,29.25,0,0,0,369.52,98.1Zm-23.39,46.29a16.34,16.34,0,0,1-6.55-1.25,12.4,12.4,0,0,1-4.75-3.62,17.84,17.84,0,0,1-3.15-6.33,33.7,33.7,0,0,1-1.17-9.38,34.39,34.39,0,0,1,.95-8.16,19.33,19.33,0,0,1,2.84-6.49,13.77,13.77,0,0,1,4.78-4.28,14.55,14.55,0,0,1,7.05-1.58,16.42,16.42,0,0,1,6.52,1.25,12.36,12.36,0,0,1,4.78,3.62,17.87,17.87,0,0,1,3.16,6.3,33.4,33.4,0,0,1,1.17,9.34,34.65,34.65,0,0,1-.95,8.22,19.34,19.34,0,0,1-2.84,6.49,13.76,13.76,0,0,1-4.78,4.28A14.53,14.53,0,0,1,346.13,144.39Z"/><path d="M437.2,90.27H411.8V72.92a2.5,2.5,0,0,0-3.13-2.42l-10.76,2.78A2.5,2.5,0,0,0,396,75.7V90.27H381.16a2.5,2.5,0,0,0-2.5,2.5v9a2.5,2.5,0,0,0,2.5,2.5H396v29.91c0,8,2.21,14.07,6.56,18.08s10.73,5.95,19.13,5.95a80.11,80.11,0,0,0,8.17-.42,55.27,55.27,0,0,0,7.9-1.39A2.5,2.5,0,0,0,439.7,154v-9.28a2.5,2.5,0,0,0-3.12-2.42,59.41,59.41,0,0,1-7.06,1.4,47.87,47.87,0,0,1-6.17.44c-3.95,0-6.9-.89-8.78-2.64s-2.76-4.45-2.76-8.16v-29H437.2a2.5,2.5,0,0,0,2.5-2.5v-9A2.5,2.5,0,0,0,437.2,90.27Z"/><path d="M499.69,98.77a22,22,0,0,0-7.6-7.07,21.53,21.53,0,0,0-10.55-2.54A28.26,28.26,0,0,0,469.09,92a25.48,25.48,0,0,0-6,4.18l.19-4.52s0-.07,0-.11V67.48a2.5,2.5,0,0,0-2.5-2.5H450a2.5,2.5,0,0,0-2.5,2.5v83.75a2.5,2.5,0,0,0,1.56,2.32A60.45,60.45,0,0,0,460.92,157a65.36,65.36,0,0,0,11.71,1.09,36.43,36.43,0,0,0,13.61-2.44,28.67,28.67,0,0,0,10.46-7.12,31.74,31.74,0,0,0,6.59-11.2,44.35,44.35,0,0,0,2.27-14.65,58.06,58.06,0,0,0-1.43-13.35A32.3,32.3,0,0,0,499.69,98.77Zm-32,45a39.29,39.29,0,0,1-4.46-1.25V115a58.7,58.7,0,0,1,4.62-5.3,30.19,30.19,0,0,1,4.39-3.71,14.4,14.4,0,0,1,3.7-1.85,11.58,11.58,0,0,1,3.41-.54,7.49,7.49,0,0,1,4.35,1.21,9.85,9.85,0,0,1,3.16,3.65,21.07,21.07,0,0,1,2,6.24,50.29,50.29,0,0,1,.67,8.54,33.87,33.87,0,0,1-1.39,10.5,17.3,17.3,0,0,1-3.54,6.38,12,12,0,0,1-4.93,3.27A21.72,21.72,0,0,1,467.71,143.74Z"/><path d="M571.34,108.94a29.25,29.25,0,0,0-6.17-10.84,26.44,26.44,0,0,0-9.89-6.69,35.23,35.23,0,0,0-12.88-2.24,33.83,33.83,0,0,0-13.49,2.59,29,29,0,0,0-10.21,7.31,32.2,32.2,0,0,0-6.38,11.12,43.27,43.27,0,0,0-2.18,14,46.5,46.5,0,0,0,2.07,14.45,29.56,29.56,0,0,0,6.16,10.87,26.27,26.27,0,0,0,9.9,6.73,35.23,35.23,0,0,0,12.88,2.24,33.81,33.81,0,0,0,13.49-2.59,29,29,0,0,0,10.21-7.31,32.15,32.15,0,0,0,6.38-11.19,43.86,43.86,0,0,0,2.17-14.07A46.27,46.27,0,0,0,571.34,108.94Zm-29.56,35.45a16.34,16.34,0,0,1-6.55-1.25,12.39,12.39,0,0,1-4.75-3.62,17.84,17.84,0,0,1-3.15-6.33,33.66,33.66,0,0,1-1.17-9.38,34.42,34.42,0,0,1,.95-8.16,19.33,19.33,0,0,1,2.84-6.5,14,14,0,0,1,4.78-4.28,14.54,14.54,0,0,1,7.05-1.58,16.42,16.42,0,0,1,6.52,1.25,12.36,12.36,0,0,1,4.78,3.62,17.87,17.87,0,0,1,3.16,6.3,33.4,33.4,0,0,1,1.17,9.34,34.66,34.66,0,0,1-.95,8.22,19.34,19.34,0,0,1-2.84,6.49,13.75,13.75,0,0,1-4.78,4.28A14.53,14.53,0,0,1,541.78,144.39Z"/><path d="M637.37,153.33l-23.12-29.42,22.17-29.64a2.5,2.5,0,0,0-2-4h-13.3A2.5,2.5,0,0,0,619,91.38l-14,20.81L590.84,91.36a2.5,2.5,0,0,0-2.06-1.09H575a2.5,2.5,0,0,0-2,4l21.82,29.41-22.9,29.67a2.5,2.5,0,0,0,2,4h13.92a2.5,2.5,0,0,0,2-1.07l14.54-20.78,14.71,20.79a2.5,2.5,0,0,0,2,1.06h14.29a2.5,2.5,0,0,0,2-4Z"/></g></g></svg>