<svg xmlns="http://www.w3.org/2000/svg" viewBox="0 0 384.99 360.43"><title>Botbox Masthead</title><g id="Layer_2" data-name="Layer 2"><g id="Layer_5" data-name="Layer 5"><path d="M303.43,66.15A24.78,24.78,0,0,0,260.29,49.5l-45.62-21a24.79,24.79,0,1,0-49.1-.57L118.71,49.5A24.78,24.78,0,1,0,95.25,90.4l4.83,49.33a24.78,24.78,0,1,0,24.63,42.58l41.86,29.85a24.79,24.79,0,1,0,47.08-.21l40.58-29.5a24.78,24.78,0,1,0,24.5-42.69l4.94-49.34A24.82,24.82,0,0,0,303.43,66.15ZM190.16,34.69a9.9,9.9,0,1,1,9.9-9.9A9.91,9.91,0,0,1,190.16,34.69Zm88.48,21.56a9.9,9.9,0,1,1-9.9,9.9A9.91,9.91,0,0,1,278.64,56.25ZM245.47,170.42l-40.58,29.5a24.87,24.87,0,0,0-7.29-3.72V140.72a24.79,24.79,0,0,0,16.76-29l47.51-27.35a24.94,24.94,0,0,0,7,4.54l-4.95,49.34a24.79,24.79,0,0,0-18.45,32.15ZM114.9,138.28l-4.83-49.33a24.92,24.92,0,0,0,7.17-4.67l48.68,27.61a24.7,24.7,0,0,0-.55,5.19,25,25,0,0,0,17.35,23.64V196.2a24.84,24.84,0,0,0-7.47,3.86L133.37,170.2a24.79,24.79,0,0,0-18.47-31.92Zm10-75.26,46.86-21.58a24.75,24.75,0,0,0,36.3.43L254,63a24.81,24.81,0,0,0,.38,8.48L206.92,98.85a24.74,24.74,0,0,0-33.65.11L124.6,71.34a24.72,24.72,0,0,0,.35-8.32Zm65.21,44.17a9.9,9.9,0,1,1-9.9,9.9A9.91,9.91,0,0,1,190.16,107.19Zm0,102.75a9.9,9.9,0,1,1-9.9,9.9A9.91,9.91,0,0,1,190.16,209.94ZM100.36,56.25a9.9,9.9,0,1,1-9.9,9.9A9.91,9.91,0,0,1,100.36,56.25Zm9.44,116.19a9.9,9.9,0,1,1,9.9-9.9A9.91,9.91,0,0,1,109.8,172.43ZM269,152.63a9.9,9.9,0,1,1-9.9,9.9A9.91,9.91,0,0,1,269,152.63Z"/><path d="M52.56,318.11a21.2,21.2,0,0,0-5.85-4.35l-.53-.26a17.93,17.93,0,0,0,5.45-5.21,22.41,22.41,0,0,0,3.54-12.64c0-10.11-5.12-22.17-29.53-22.17H2.5A2.5,2.5,0,0,0,0,276v80.84a2.5,2.5,0,0,0,2.5,2.5H23.65a52.65,52.65,0,0,0,13.8-1.7,32.59,32.59,0,0,0,10.91-5.1,23.77,23.77,0,0,0,7.18-8.46,25.17,25.17,0,0,0,2.52-11.42,21.74,21.74,0,0,0-1.48-8.17A20.14,20.14,0,0,0,52.56,318.11ZM37.76,302a8.81,8.81,0,0,1-2.66,3.27,12.34,12.34,0,0,1-4.38,2,24.5,24.5,0,0,1-6.2.72H16v-20.3h8.88a26.55,26.55,0,0,1,7.27.83,11.2,11.2,0,0,1,4.1,2,5.93,5.93,0,0,1,1.85,2.67,12.07,12.07,0,0,1,.61,3.87A11.25,11.25,0,0,1,37.76,302ZM16,322.2h8.76a29.47,29.47,0,0,1,7.38.85,16.68,16.68,0,0,1,5.24,2.27,9,9,0,0,1,3,3.28,9.25,9.25,0,0,1,1,4.4c0,4.2-1.19,7.15-3.65,9-2.63,2-6.87,3-12.59,3H16Z"/><path d="M116.61,300a26.45,26.45,0,0,0-9.89-6.69,35.23,35.23,0,0,0-12.88-2.24,33.82,33.82,0,0,0-13.49,2.59A29,29,0,0,0,70.13,301a32.22,32.22,0,0,0-6.38,11.12,43.28,43.28,0,0,0-2.18,14,46.51,46.51,0,0,0,2.07,14.45,29.56,29.56,0,0,0,6.16,10.87,26.25,26.25,0,0,0,9.9,6.73,35.24,35.24,0,0,0,12.88,2.24,33.82,33.82,0,0,0,13.49-2.59,29,29,0,0,0,10.21-7.31,32.13,32.13,0,0,0,6.38-11.19,43.83,43.83,0,0,0,2.17-14.07,46.28,46.28,0,0,0-2.07-14.39A29.25,29.25,0,0,0,116.61,300ZM93.21,346.33a16.32,16.32,0,0,1-6.55-1.25,12.39,12.39,0,0,1-4.75-3.62,17.84,17.84,0,0,1-3.16-6.33,33.69,33.69,0,0,1-1.17-9.38,34.38,34.38,0,0,1,.95-8.16,19.33,19.33,0,0,1,2.84-6.5,13.78,13.78,0,0,1,4.78-4.28,14.54,14.54,0,0,1,7.05-1.58,16.4,16.4,0,0,1,6.53,1.25,12.36,12.36,0,0,1,4.77,3.61,17.9,17.9,0,0,1,3.16,6.3,33.4,33.4,0,0,1,1.17,9.34,34.65,34.65,0,0,1-.95,8.22,19.34,19.34,0,0,1-2.84,6.49,13.76,13.76,0,0,1-4.78,4.28A14.55,14.55,0,0,1,93.21,346.33Z"/><path d="M184.28,292.21H158.89V274.86a2.5,2.5,0,0,0-3.13-2.42L145,275.22a2.5,2.5,0,0,0-1.87,2.42v14.57H128.25a2.5,2.5,0,0,0-2.5,2.5v9a2.5,2.5,0,0,0,2.5,2.5h14.88v29.91c0,8,2.21,14.07,6.56,18.08s10.73,5.95,19.13,5.95a80,80,0,0,0,8.17-.42,55.24,55.24,0,0,0,7.9-1.39,2.5,2.5,0,0,0,1.88-2.42v-9.28a2.5,2.5,0,0,0-3.12-2.42,59.3,59.3,0,0,1-7.06,1.4,47.67,47.67,0,0,1-6.17.44c-3.94,0-6.9-.89-8.78-2.64s-2.76-4.45-2.76-8.16v-29h25.39a2.5,2.5,0,0,0,2.5-2.5v-9A2.5,2.5,0,0,0,184.28,292.21Z"/><path d="M246.77,300.71a22,22,0,0,0-7.6-7.07,21.53,21.53,0,0,0-10.55-2.54,28.26,28.26,0,0,0-12.44,2.82,25.5,25.5,0,0,0-6,4.18l.19-4.52s0-.07,0-.11V269.42a2.5,2.5,0,0,0-2.5-2.5H197.07a2.5,2.5,0,0,0-2.5,2.5v83.74a2.5,2.5,0,0,0,1.56,2.32A60.34,60.34,0,0,0,208,359a65.26,65.26,0,0,0,11.71,1.09,36.43,36.43,0,0,0,13.61-2.44,28.66,28.66,0,0,0,10.46-7.12,31.74,31.74,0,0,0,6.59-11.2,44.35,44.35,0,0,0,2.27-14.65,58.05,58.05,0,0,0-1.43-13.35A32.29,32.29,0,0,0,246.77,300.71Zm-32,45a39.39,39.39,0,0,1-4.46-1.25V316.91a58.77,58.77,0,0,1,4.62-5.3,30.19,30.19,0,0,1,4.39-3.71A14.37,14.37,0,0,1,223,306a11.56,11.56,0,0,1,3.41-.54,7.48,7.48,0,0,1,4.35,1.21,9.84,9.84,0,0,1,3.16,3.65,21.09,21.09,0,0,1,2,6.24,50.29,50.29,0,0,1,.67,8.54,33.87,33.87,0,0,1-1.39,10.5,17.31,17.31,0,0,1-3.54,6.38,12,12,0,0,1-4.93,3.27A21.71,21.71,0,0,1,214.8,345.68Z"/><path d="M318.43,310.88A29.26,29.26,0,0,0,312.26,300a26.44,26.44,0,0,0-9.89-6.69,35.23,35.23,0,0,0-12.88-2.24A33.83,33.83,0,0,0,276,293.69,29,29,0,0,0,265.79,301a32.2,32.2,0,0,0-6.38,11.12,43.28,43.28,0,0,0-2.18,14,46.5,46.5,0,0,0,2.07,14.45,29.56,29.56,0,0,0,6.16,10.87,26.25,26.25,0,0,0,9.9,6.73,35.24,35.24,0,0,0,12.88,2.24,33.81,33.81,0,0,0,13.49-2.59,29,29,0,0,0,10.21-7.31,32.15,32.15,0,0,0,6.38-11.19,43.87,43.87,0,0,0,2.17-14.07A46.27,46.27,0,0,0,318.43,310.88Zm-29.56,35.45a16.33,16.33,0,0,1-6.55-1.25,12.39,12.39,0,0,1-4.75-3.62,17.85,17.85,0,0,1-3.15-6.33,33.66,33.66,0,0,1-1.17-9.38,34.42,34.42,0,0,1,.95-8.16,19.32,19.32,0,0,1,2.84-6.5,14,14,0,0,1,4.78-4.28,14.54,14.54,0,0,1,7.05-1.58,16.4,16.4,0,0,1,6.53,1.25,12.35,12.35,0,0,1,4.77,3.61,17.88,17.88,0,0,1,3.16,6.3,33.4,33.4,0,0,1,1.17,9.34,34.67,34.67,0,0,1-.95,8.22,19.33,19.33,0,0,1-2.84,6.49,13.75,13.75,0,0,1-4.78,4.28A14.54,14.54,0,0,1,288.87,346.33Z"/><path d="M384.46,355.27l-23.12-29.42,22.17-29.64a2.5,2.5,0,0,0-2-4h-13.3a2.5,2.5,0,0,0-2.08,1.11l-14,20.81L337.92,293.3a2.5,2.5,0,0,0-2.06-1.09H322.07a2.5,2.5,0,0,0-2,4l21.82,29.41L319,355.28a2.5,2.5,0,0,0,2,4h13.92a2.5,2.5,0,0,0,2-1.07l14.54-20.78,14.71,20.79a2.5,2.5,0,0,0,2,1.06h14.29a2.5,2.5,0,0,0,2-4Z"/></g></g></svg>