<svg xmlns="http://www.w3.org/2000/svg" viewBox="0 0 227.86 244.63"><defs><style>.cls-1{fill:#fff;}</style></defs><title>botbox-logo-inverted-full</title><g id="Layer_2" data-name="Layer 2"><g id="Layer_4" data-name="Layer 4"><path class="cls-1" d="M227.86,66.15A24.78,24.78,0,0,0,184.72,49.5l-45.62-21A24.79,24.79,0,1,0,90,27.92L43.14,49.5A24.78,24.78,0,1,0,19.68,90.4l4.83,49.33a24.78,24.78,0,1,0,24.63,42.58L91,212.17a24.79,24.79,0,1,0,47.08-.21l40.58-29.5a24.78,24.78,0,1,0,24.5-42.69l4.94-49.34A24.82,24.82,0,0,0,227.86,66.15ZM114.59,34.69a9.9,9.9,0,1,1,9.9-9.9A9.91,9.91,0,0,1,114.59,34.69Zm88.48,21.56a9.9,9.9,0,1,1-9.9,9.9A9.91,9.91,0,0,1,203.07,56.25ZM169.91,170.42l-40.58,29.5A24.87,24.87,0,0,0,122,196.2V140.72a24.79,24.79,0,0,0,16.76-29L186.3,84.39a24.94,24.94,0,0,0,7,4.54l-4.95,49.34a24.79,24.79,0,0,0-18.45,32.15ZM39.33,138.28,34.5,88.95a24.92,24.92,0,0,0,7.17-4.67L90.35,111.9a24.7,24.7,0,0,0-.55,5.19,25,25,0,0,0,17.35,23.64V196.2a24.84,24.84,0,0,0-7.47,3.86L57.8,170.2a24.79,24.79,0,0,0-18.47-31.92ZM49.38,63,96.24,41.44a24.75,24.75,0,0,0,36.3.43L178.48,63a24.81,24.81,0,0,0,.38,8.48L131.35,98.85A24.74,24.74,0,0,0,97.71,99L49,71.34A24.72,24.72,0,0,0,49.38,63Zm65.21,44.17a9.9,9.9,0,1,1-9.9,9.9A9.91,9.91,0,0,1,114.59,107.19Zm0,102.75a9.9,9.9,0,1,1-9.9,9.9A9.91,9.91,0,0,1,114.59,209.94ZM24.79,56.25a9.9,9.9,0,1,1-9.9,9.9A9.91,9.91,0,0,1,24.79,56.25Zm9.44,116.19a9.9,9.9,0,1,1,9.9-9.9A9.91,9.91,0,0,1,34.23,172.43Zm159.18-19.8a9.9,9.9,0,1,1-9.9,9.9A9.91,9.91,0,0,1,193.41,152.63Z"/></g></g></svg>