<svg xmlns="http://www.w3.org/2000/svg" xmlns:xlink="http://www.w3.org/1999/xlink" viewBox="0 0 197.06 95.03"><defs><style>.cls-1{fill:none;}.cls-2{clip-path:url(#clip-path);}</style><clipPath id="clip-path" transform="translate(0 0)"><rect class="cls-1" width="197.06" height="95.03"/></clipPath></defs><title>Tron Short</title><g id="Layer_2" data-name="Layer 2"><g id="Layer_1-2" data-name="Layer 1"><g id="Tron_Short" data-name="Tron Short"><g class="cls-2"><g class="cls-2"><path d="M174.41,45.67H157.2a24.76,24.76,0,0,0-32.78-27.14,71.21,71.21,0,0,0-94.77-1A24.76,24.76,0,0,0,.47,46.64l.09.44c.06.29.13.58.2.86.14.55.3,1.09.48,1.63l0,0A25.06,25.06,0,0,0,17.31,65.44h0a24.83,24.83,0,0,0,14.89,0h0a24.66,24.66,0,0,0,9.2-5.34h74.71a24.66,24.66,0,0,0,9.2,5.34h0a24.83,24.83,0,0,0,14.89,0h0a24.64,24.64,0,0,0,8.64-4.84h25.58a9.9,9.9,0,0,1,0,19.34H40.5A7.54,7.54,0,0,0,40.5,95H174.41V95a24.67,24.67,0,0,0,5.34-1v0A25.06,25.06,0,0,0,195.8,78.11l0-.07c.18-.53.33-1.07.47-1.61.08-.29.26-1.16.29-1.29a24.75,24.75,0,0,0-22.17-29.47m-62.09-17.8a24.69,24.69,0,0,0-4,17.72H49.21a24.68,24.68,0,0,0-5.72-19.91,56.13,56.13,0,0,1,68.83,2.19M24.75,51.7a9.9,9.9,0,1,1,9.9-9.9,9.91,9.91,0,0,1-9.9,9.9m108,0a9.9,9.9,0,1,1,9.9-9.9,9.91,9.91,0,0,1-9.9,9.9" transform="translate(0 0)"/></g></g></g></g></g></svg>