<svg xmlns="http://www.w3.org/2000/svg" xmlns:xlink="http://www.w3.org/1999/xlink" viewBox="0 0 284.8 166.08"><defs><style>.cls-1{fill:none;}.cls-2{clip-path:url(#clip-path);}</style><clipPath id="clip-path" transform="translate(0 0)"><rect class="cls-1" width="289.45" height="166.08"/></clipPath></defs><title>Tron Logo</title><g id="Layer_2" data-name="Layer 2"><g id="Layer_1-2" data-name="Layer 1"><g id="Tron_Logo" data-name="Tron Logo"><g class="cls-2"><g class="cls-2"><path d="M240.6,116.72H157.2a24.76,24.76,0,0,0-32.78-27.14,71.21,71.21,0,0,0-94.77-1A24.75,24.75,0,0,0,.47,117.69c0,.15.06.29.09.44s.13.58.2.86c.14.55.3,1.09.48,1.62l0,0a25.06,25.06,0,0,0,16.05,15.82h0a24.83,24.83,0,0,0,14.89,0h0a24.67,24.67,0,0,0,9.2-5.34h74.71a24.66,24.66,0,0,0,9.2,5.34h0a24.83,24.83,0,0,0,14.89,0h0a24.63,24.63,0,0,0,8.64-4.84H240.6a9.9,9.9,0,0,1,0,19.34H40.5a7.54,7.54,0,0,0,0,15.08H240.6V166a24.67,24.67,0,0,0,5.34-1v0a25.06,25.06,0,0,0,16-15.81l0-.07c.18-.53.33-1.07.47-1.61.08-.29.14-.59.21-.89,0-.13.06-.27.08-.4a24.75,24.75,0,0,0-22.17-29.47M112.32,98.93a24.69,24.69,0,0,0-4,17.72H49.21a24.69,24.69,0,0,0-5.72-19.91,56.13,56.13,0,0,1,68.83,2.19M24.75,122.75a9.9,9.9,0,1,1,9.9-9.9,9.91,9.91,0,0,1-9.9,9.9m108,0a9.9,9.9,0,1,1,9.9-9.9,9.91,9.91,0,0,1-9.9,9.9" transform="translate(0 0)"/><path d="M188,71.47H176.63v33.84h-5.27V71.47H160V67H188Z" transform="translate(0 0)"/><path d="M196.38,75.89H201l.15,5.42a18.88,18.88,0,0,1,5.14-4.54,10.44,10.44,0,0,1,5.11-1.41,8.33,8.33,0,0,1,6.93,3q2.36,3,2.18,8.79h-5.16q.09-3.87-1.13-5.61a4.06,4.06,0,0,0-3.56-1.74,6.18,6.18,0,0,0-2.07.37,8.34,8.34,0,0,0-2.14,1.17,19.16,19.16,0,0,0-2.33,2.07,38.13,38.13,0,0,0-2.64,3v18.9h-5.16Z" transform="translate(0 0)"/><path d="M253.77,90.37a19.5,19.5,0,0,1-1,6.28,14,14,0,0,1-2.78,4.89,12.49,12.49,0,0,1-4.42,3.16,14.79,14.79,0,0,1-5.92,1.13,15.44,15.44,0,0,1-5.67-1,11.21,11.21,0,0,1-4.25-2.89,12.77,12.77,0,0,1-2.67-4.72,20.76,20.76,0,0,1-.92-6.47,19.23,19.23,0,0,1,1-6.25,14,14,0,0,1,2.78-4.86,12.48,12.48,0,0,1,4.42-3.16,14.77,14.77,0,0,1,5.92-1.13,15.44,15.44,0,0,1,5.67,1,11.29,11.29,0,0,1,4.25,2.87,12.64,12.64,0,0,1,2.67,4.7A20.66,20.66,0,0,1,253.77,90.37Zm-5.21.23a16.92,16.92,0,0,0-.6-4.76,9.59,9.59,0,0,0-1.71-3.4,7.07,7.07,0,0,0-2.71-2.05A8.9,8.9,0,0,0,240,79.7a8,8,0,0,0-3.91.89A7.74,7.74,0,0,0,233.39,83a10.29,10.29,0,0,0-1.52,3.47,17.4,17.4,0,0,0-.48,4.15,17.05,17.05,0,0,0,.6,4.78,9.56,9.56,0,0,0,1.71,3.41,7.1,7.1,0,0,0,2.7,2.05,8.87,8.87,0,0,0,3.57.69,8,8,0,0,0,3.91-.89,7.74,7.74,0,0,0,2.67-2.39,10.3,10.3,0,0,0,1.52-3.47A17.53,17.53,0,0,0,248.56,90.6Z" transform="translate(0 0)"/><path d="M261.15,75.89h4.54l.21,4.75a21.2,21.2,0,0,1,2.49-2.53,13.64,13.64,0,0,1,2.36-1.63,8.82,8.82,0,0,1,2.36-.86,12.23,12.23,0,0,1,2.49-.25q4.54,0,6.87,2.68t2.33,8.07v19.19h-5.1V86.53a8.29,8.29,0,0,0-1.29-5.11,4.57,4.57,0,0,0-3.84-1.66,6.12,6.12,0,0,0-1.83.28,6.67,6.67,0,0,0-1.86,1,15.33,15.33,0,0,0-2.09,1.86q-1.13,1.17-2.53,2.93v19.51h-5.1Z" transform="translate(0 0)"/><path d="M67.84,33.31h0a14.53,14.53,0,0,0-3.08-2.47,12,12,0,0,0,2.57-2.77,15.33,15.33,0,0,0,2.43-8.65c0-6.93-3.46-15.19-19.94-15.19H34.9a2.5,2.5,0,0,0-2.5,2.5V58.9a2.5,2.5,0,0,0,2.5,2.5H48.55a34.87,34.87,0,0,0,9.14-1.13A21.92,21.92,0,0,0,65,56.83a16.22,16.22,0,0,0,4.9-5.77,17.13,17.13,0,0,0,1.72-7.77,14.92,14.92,0,0,0-1-5.61,13.89,13.89,0,0,0-2.78-4.37m-11-10.16a4.83,4.83,0,0,1-1.46,1.79,7.09,7.09,0,0,1-2.51,1.17,14.93,14.93,0,0,1-3.77.44H44.5V15.22h4.84a16.27,16.27,0,0,1,4.44.5,6.35,6.35,0,0,1,2.32,1.12A3,3,0,0,1,57,18.17a6.89,6.89,0,0,1,.35,2.21,6.4,6.4,0,0,1-.53,2.77M44.5,37.45h4.76A18.09,18.09,0,0,1,53.8,38a9.9,9.9,0,0,1,3.11,1.34,5,5,0,0,1,1.64,1.79,5.1,5.1,0,0,1,.55,2.43c0,2.42-.66,4.09-2,5.11-1.54,1.17-4.09,1.77-7.59,1.77h-5Z" transform="translate(0 0)"/><path d="M109.18,21.66h0a18,18,0,0,0-6.71-4.54,23.62,23.62,0,0,0-8.63-1.51,22.72,22.72,0,0,0-9.06,1.74,19.58,19.58,0,0,0-6.9,4.94,21.67,21.67,0,0,0-4.29,7.48,28.84,28.84,0,0,0-1.45,9.33,30.91,30.91,0,0,0,1.38,9.6A19.94,19.94,0,0,0,77.68,56,17.81,17.81,0,0,0,84.4,60.6,23.63,23.63,0,0,0,93,62.11a22.7,22.7,0,0,0,9.05-1.74,19.56,19.56,0,0,0,6.9-4.94,21.61,21.61,0,0,0,4.29-7.53,29.15,29.15,0,0,0,1.45-9.36A30.76,30.76,0,0,0,113.35,29a19.77,19.77,0,0,0-4.17-7.32m-6.55,17.2A21.46,21.46,0,0,1,102,44a11.6,11.6,0,0,1-1.7,3.89,8,8,0,0,1-2.79,2.49,8.51,8.51,0,0,1-4.12.91,9.67,9.67,0,0,1-3.87-.73,7.13,7.13,0,0,1-2.73-2.08A10.62,10.62,0,0,1,85,44.66a20.87,20.87,0,0,1-.72-5.8,21.28,21.28,0,0,1,.59-5.05,11.6,11.6,0,0,1,1.7-3.9,8,8,0,0,1,2.79-2.49,8.51,8.51,0,0,1,4.12-.91,9.72,9.72,0,0,1,3.86.73A7.12,7.12,0,0,1,100,29.33a10.67,10.67,0,0,1,1.87,3.76,20.69,20.69,0,0,1,.72,5.78" transform="translate(0 0)"/><path d="M152.2,16.32H136.7V6a2.5,2.5,0,0,0-3.12-2.42l-6.94,1.8a2.5,2.5,0,0,0-1.87,2.42v8.52H116a2.5,2.5,0,0,0-2.5,2.5v5.83a2.5,2.5,0,0,0,2.5,2.5h8.72V45.56c0,5.42,1.52,9.56,4.52,12.32S136.57,62,142.22,62a52.47,52.47,0,0,0,5.37-.27,36.47,36.47,0,0,0,5.23-.92,2.5,2.5,0,0,0,1.89-2.42v-6a2.5,2.5,0,0,0-3.12-2.42,37.64,37.64,0,0,1-4.45.88,30.12,30.12,0,0,1-3.87.28c-2.32,0-4-.49-5.06-1.47s-1.5-2.48-1.5-4.61V27.15h15.5a2.5,2.5,0,0,0,2.5-2.5V18.82a2.5,2.5,0,0,0-2.5-2.5" transform="translate(0 0)"/><path d="M193.26,22.2A15,15,0,0,0,188,17.36a14.76,14.76,0,0,0-7.24-1.75,19.12,19.12,0,0,0-8.42,1.91,16,16,0,0,0-2.54,1.55l0-.93s0-.07,0-.11V2.5A2.5,2.5,0,0,0,167.4,0h-6.94A2.5,2.5,0,0,0,158,2.5v54a2.5,2.5,0,0,0,1.56,2.32,40,40,0,0,0,7.84,2.3,43.1,43.1,0,0,0,7.71.72,24.38,24.38,0,0,0,9.11-1.64,19.38,19.38,0,0,0,7.07-4.81,21.37,21.37,0,0,0,4.44-7.54,29.5,29.5,0,0,0,1.52-9.75,38.4,38.4,0,0,0-.95-8.82,21.75,21.75,0,0,0-3-7.12m-17.94,5.86A8.43,8.43,0,0,1,177.48,27a6.56,6.56,0,0,1,1.94-.31,4,4,0,0,1,2.31.63,5.5,5.5,0,0,1,1.75,2,12.74,12.74,0,0,1,1.2,3.77,31.39,31.39,0,0,1,.42,5.36,21,21,0,0,1-.85,6.49,10.3,10.3,0,0,1-2.09,3.8,6.91,6.91,0,0,1-2.82,1.88,13.15,13.15,0,0,1-7.25.22q-1.09-.24-2.18-.58V33.45a36.19,36.19,0,0,1,2.72-3.1,18.72,18.72,0,0,1,2.7-2.29" transform="translate(0 0)"/><path d="M241,38.54A30.69,30.69,0,0,0,239.6,29a19.75,19.75,0,0,0-4.17-7.32,17.93,17.93,0,0,0-6.71-4.54,23.61,23.61,0,0,0-8.63-1.51A22.7,22.7,0,0,0,211,17.35a19.56,19.56,0,0,0-6.9,4.94,21.67,21.67,0,0,0-4.29,7.48,28.77,28.77,0,0,0-1.45,9.33,30.91,30.91,0,0,0,1.38,9.6A20,20,0,0,0,203.93,56a17.82,17.82,0,0,0,6.72,4.57,23.61,23.61,0,0,0,8.64,1.51,22.69,22.69,0,0,0,9.05-1.74,19.58,19.58,0,0,0,6.9-4.94,21.66,21.66,0,0,0,4.29-7.53A29.17,29.17,0,0,0,241,38.54m-21.3-12a9.71,9.71,0,0,1,3.86.73,7.09,7.09,0,0,1,2.75,2.08,10.68,10.68,0,0,1,1.87,3.76,20.7,20.7,0,0,1,.72,5.78,21.41,21.41,0,0,1-.59,5.09h0a11.57,11.57,0,0,1-1.7,3.89,8,8,0,0,1-2.79,2.49,8.52,8.52,0,0,1-4.12.91,9.66,9.66,0,0,1-3.87-.73,7.11,7.11,0,0,1-2.73-2.08,10.63,10.63,0,0,1-1.87-3.77,20.83,20.83,0,0,1-.72-5.8,21.35,21.35,0,0,1,.59-5.05,11.58,11.58,0,0,1,1.7-3.89,8,8,0,0,1,2.78-2.49,8.53,8.53,0,0,1,4.12-.91" transform="translate(0 0)"/><path d="M282.07,57.35,267.57,38.9l13.9-18.58a2.5,2.5,0,0,0-2-4h-8.58a2.5,2.5,0,0,0-2.08,1.11l-8.28,12.34-8.45-12.36A2.5,2.5,0,0,0,250,16.32h-8.9a2.5,2.5,0,0,0-2,4l13.68,18.44L238.41,57.37a2.5,2.5,0,0,0,2,4h9a2.5,2.5,0,0,0,2-1.07L260.08,48l8.76,12.39a2.5,2.5,0,0,0,2,1.06h9.22a2.5,2.5,0,0,0,2-4" transform="translate(0 0)"/></g></g></g></g></g></svg>