<svg xmlns="http://www.w3.org/2000/svg" viewBox="0 0 393.65 165.55"><title>Tron Banner</title><g id="Layer_2" data-name="Layer 2"><g id="Layer_1-2" data-name="Layer 1"><path d="M319.8,45.67h-83.4a24.75,24.75,0,0,0-32.78-27.14,71.21,71.21,0,0,0-94.77-1A24.75,24.75,0,0,0,79.66,46.64c0,.15.06.29.09.44s.13.58.2.86c.14.55.3,1.09.48,1.62l0,0A25.06,25.06,0,0,0,96.5,65.44v0a24.85,24.85,0,0,0,14.89,0v0a24.66,24.66,0,0,0,9.2-5.34H195.3a24.66,24.66,0,0,0,9.2,5.34v0a24.85,24.85,0,0,0,14.89,0v0A24.62,24.62,0,0,0,228,60.59H319.8a9.9,9.9,0,0,1,0,19.34H119.69a7.54,7.54,0,0,0,0,15.08H319.8V95a24.68,24.68,0,0,0,5.34-1v0a25.06,25.06,0,0,0,16.05-15.81l0-.07c.18-.53.33-1.07.47-1.61.07-.29.14-.59.21-.89l.08-.4A24.75,24.75,0,0,0,319.8,45.67ZM191.51,27.87a24.7,24.7,0,0,0-4,17.72H128.4a24.69,24.69,0,0,0-5.72-19.91,56.13,56.13,0,0,1,68.83,2.19ZM103.94,51.7a9.9,9.9,0,1,1,9.9-9.9A9.91,9.91,0,0,1,103.94,51.7Zm108,0a9.9,9.9,0,1,1,9.9-9.9A9.91,9.91,0,0,1,211.94,51.7Z"/><path d="M296.82,131H285.48v33.84h-5.27V131H268.87v-4.45h27.95Z"/><path d="M305.23,135.42h4.66l.15,5.42a18.88,18.88,0,0,1,5.14-4.54,10.44,10.44,0,0,1,5.11-1.41,8.33,8.33,0,0,1,6.93,3q2.36,3,2.18,8.79h-5.16q.09-3.87-1.13-5.61a4.07,4.07,0,0,0-3.56-1.74,6.19,6.19,0,0,0-2.07.37,8.36,8.36,0,0,0-2.14,1.17,19.24,19.24,0,0,0-2.33,2.07,38.22,38.22,0,0,0-2.64,3v18.9h-5.16Z"/><path d="M362.62,149.89a19.5,19.5,0,0,1-1,6.28,14,14,0,0,1-2.78,4.89,12.47,12.47,0,0,1-4.42,3.16,14.78,14.78,0,0,1-5.92,1.13,15.44,15.44,0,0,1-5.67-1,11.21,11.21,0,0,1-4.25-2.89,12.77,12.77,0,0,1-2.67-4.72,20.76,20.76,0,0,1-.92-6.47,19.24,19.24,0,0,1,1-6.25,14,14,0,0,1,2.78-4.86A12.49,12.49,0,0,1,343.2,136a14.78,14.78,0,0,1,5.92-1.13,15.44,15.44,0,0,1,5.67,1,11.3,11.3,0,0,1,4.25,2.87,12.63,12.63,0,0,1,2.67,4.7A20.66,20.66,0,0,1,362.62,149.89Zm-5.21.23a16.9,16.9,0,0,0-.6-4.76,9.59,9.59,0,0,0-1.71-3.4,7.07,7.07,0,0,0-2.71-2.05,8.91,8.91,0,0,0-3.56-.69,8,8,0,0,0-3.91.89,7.75,7.75,0,0,0-2.67,2.39,10.29,10.29,0,0,0-1.52,3.47,17.4,17.4,0,0,0-.48,4.15,17.05,17.05,0,0,0,.6,4.78,9.58,9.58,0,0,0,1.71,3.41,7.09,7.09,0,0,0,2.7,2.05,8.87,8.87,0,0,0,3.57.69,8,8,0,0,0,3.91-.89,7.74,7.74,0,0,0,2.67-2.39,10.29,10.29,0,0,0,1.52-3.47A17.53,17.53,0,0,0,357.41,150.13Z"/><path d="M370,135.42h4.54l.21,4.75a21.27,21.27,0,0,1,2.49-2.53A13.66,13.66,0,0,1,379.6,136a8.83,8.83,0,0,1,2.36-.86,12.27,12.27,0,0,1,2.49-.25q4.54,0,6.87,2.68t2.33,8.07v19.19h-5.1V146.05a8.29,8.29,0,0,0-1.29-5.11,4.57,4.57,0,0,0-3.84-1.66,6.12,6.12,0,0,0-1.83.28,6.7,6.7,0,0,0-1.86,1,15.39,15.39,0,0,0-2.09,1.86q-1.13,1.17-2.53,2.93v19.51H370Z"/><path d="M35.45,136.75h0a14.51,14.51,0,0,0-3.08-2.47,12,12,0,0,0,2.57-2.77,15.33,15.33,0,0,0,2.43-8.65c0-6.93-3.46-15.19-19.94-15.19H2.5a2.5,2.5,0,0,0-2.5,2.5v52.16a2.5,2.5,0,0,0,2.5,2.5H16.15a34.89,34.89,0,0,0,9.14-1.13,21.9,21.9,0,0,0,7.34-3.44,16.22,16.22,0,0,0,4.9-5.77,17.12,17.12,0,0,0,1.72-7.77,14.92,14.92,0,0,0-1-5.61A13.88,13.88,0,0,0,35.45,136.75Zm-11-10.16A4.82,4.82,0,0,1,23,128.37a7.09,7.09,0,0,1-2.51,1.17,14.94,14.94,0,0,1-3.77.44H12.1V118.65h4.84a16.28,16.28,0,0,1,4.44.5,6.37,6.37,0,0,1,2.32,1.12,3,3,0,0,1,.93,1.33,6.88,6.88,0,0,1,.35,2.21A6.39,6.39,0,0,1,24.45,126.59ZM12.1,140.89h4.76a18.12,18.12,0,0,1,4.54.52,9.89,9.89,0,0,1,3.11,1.34,5,5,0,0,1,1.64,1.8A5.11,5.11,0,0,1,26.7,147c0,2.42-.66,4.09-2,5.11-1.54,1.17-4.09,1.77-7.59,1.77h-5Z"/><path d="M76.78,125.1h0a18,18,0,0,0-6.71-4.54A23.63,23.63,0,0,0,61.44,119a22.7,22.7,0,0,0-9.05,1.74,19.57,19.57,0,0,0-6.9,4.94,21.66,21.66,0,0,0-4.29,7.48,28.82,28.82,0,0,0-1.45,9.33,30.91,30.91,0,0,0,1.38,9.6,20,20,0,0,0,4.16,7.33A17.81,17.81,0,0,0,52,164a23.61,23.61,0,0,0,8.63,1.51,22.7,22.7,0,0,0,9.05-1.74,19.57,19.57,0,0,0,6.9-4.94,21.61,21.61,0,0,0,4.29-7.53A29.18,29.18,0,0,0,82.34,142,30.76,30.76,0,0,0,81,132.42,19.78,19.78,0,0,0,76.78,125.1Zm-6.55,17.2a21.48,21.48,0,0,1-.59,5.09,11.61,11.61,0,0,1-1.7,3.89,8,8,0,0,1-2.79,2.49,8.52,8.52,0,0,1-4.12.91,9.67,9.67,0,0,1-3.87-.73,7.13,7.13,0,0,1-2.73-2.08,10.63,10.63,0,0,1-1.87-3.77,20.86,20.86,0,0,1-.72-5.8,21.3,21.3,0,0,1,.59-5.05,11.59,11.59,0,0,1,1.7-3.9,8,8,0,0,1,2.78-2.49A8.52,8.52,0,0,1,61,130a9.72,9.72,0,0,1,3.86.73,7.11,7.11,0,0,1,2.75,2.08,10.67,10.67,0,0,1,1.87,3.75A20.68,20.68,0,0,1,70.23,142.3Z"/><path d="M119.8,119.76H104.3V109.45a2.5,2.5,0,0,0-3.13-2.42l-6.94,1.8a2.5,2.5,0,0,0-1.87,2.42v8.52H83.64a2.5,2.5,0,0,0-2.5,2.5v5.83a2.5,2.5,0,0,0,2.5,2.5h8.71V149c0,5.42,1.52,9.56,4.52,12.32s7.29,4.07,12.95,4.07a52.56,52.56,0,0,0,5.37-.27,36.54,36.54,0,0,0,5.23-.92,2.5,2.5,0,0,0,1.88-2.42v-6a2.5,2.5,0,0,0-3.12-2.42,37.65,37.65,0,0,1-4.45.88,30.11,30.11,0,0,1-3.87.28c-2.31,0-4-.49-5.06-1.47s-1.5-2.48-1.5-4.61V130.59h15.5a2.5,2.5,0,0,0,2.5-2.5v-5.83A2.5,2.5,0,0,0,119.8,119.76Z"/><path d="M160.86,125.64a15,15,0,0,0-5.21-4.84,14.76,14.76,0,0,0-7.24-1.75A19.13,19.13,0,0,0,140,121a16.1,16.1,0,0,0-2.54,1.55l0-.93s0-.07,0-.11V105.94a2.5,2.5,0,0,0-2.5-2.5h-6.95a2.5,2.5,0,0,0-2.5,2.5v54a2.5,2.5,0,0,0,1.56,2.32,39.94,39.94,0,0,0,7.84,2.3,43.09,43.09,0,0,0,7.71.72,24.38,24.38,0,0,0,9.11-1.64,19.38,19.38,0,0,0,7.07-4.81,21.38,21.38,0,0,0,4.44-7.54,29.5,29.5,0,0,0,1.52-9.75,38.35,38.35,0,0,0-.95-8.82A21.73,21.73,0,0,0,160.86,125.64Zm-17.94,5.86a8.44,8.44,0,0,1,2.16-1.08,6.57,6.57,0,0,1,1.94-.31,4,4,0,0,1,2.31.63,5.5,5.5,0,0,1,1.75,2,12.76,12.76,0,0,1,1.2,3.77,31.47,31.47,0,0,1,.42,5.36,21,21,0,0,1-.85,6.49,10.29,10.29,0,0,1-2.09,3.8,6.91,6.91,0,0,1-2.83,1.88,13.15,13.15,0,0,1-7.25.22c-.73-.16-1.46-.35-2.18-.58V136.89a36.28,36.28,0,0,1,2.72-3.1A18.69,18.69,0,0,1,142.92,131.5Z"/><path d="M208.59,142a30.7,30.7,0,0,0-1.38-9.56A19.75,19.75,0,0,0,203,125.1a17.94,17.94,0,0,0-6.71-4.54,23.62,23.62,0,0,0-8.63-1.51,22.71,22.71,0,0,0-9.06,1.74,19.57,19.57,0,0,0-6.9,4.94,21.66,21.66,0,0,0-4.29,7.48,28.78,28.78,0,0,0-1.45,9.33,30.91,30.91,0,0,0,1.38,9.6,20,20,0,0,0,4.16,7.33,17.82,17.82,0,0,0,6.72,4.57,23.62,23.62,0,0,0,8.63,1.51,22.7,22.7,0,0,0,9.05-1.74,19.57,19.57,0,0,0,6.9-4.94,21.64,21.64,0,0,0,4.29-7.53A29.17,29.17,0,0,0,208.59,142Zm-21.3-12a9.71,9.71,0,0,1,3.86.73,7.1,7.1,0,0,1,2.75,2.08,10.66,10.66,0,0,1,1.87,3.75,20.68,20.68,0,0,1,.72,5.78,21.43,21.43,0,0,1-.59,5.09h0a11.59,11.59,0,0,1-1.7,3.89,8,8,0,0,1-2.79,2.49,8.51,8.51,0,0,1-4.12.91,9.66,9.66,0,0,1-3.87-.73,7.13,7.13,0,0,1-2.73-2.08,10.63,10.63,0,0,1-1.87-3.77,20.81,20.81,0,0,1-.72-5.8,21.37,21.37,0,0,1,.59-5.05,11.58,11.58,0,0,1,1.7-3.89,8,8,0,0,1,2.78-2.49A8.52,8.52,0,0,1,187.29,130Z"/><path d="M249.67,160.79l-14.5-18.45,13.9-18.58a2.5,2.5,0,0,0-2-4h-8.58a2.5,2.5,0,0,0-2.08,1.11l-8.28,12.34-8.45-12.36a2.5,2.5,0,0,0-2.06-1.09h-8.9a2.5,2.5,0,0,0-2,4l13.68,18.44L206,160.81a2.5,2.5,0,0,0,2,4h9a2.5,2.5,0,0,0,2-1.07l8.66-12.37,8.76,12.39a2.5,2.5,0,0,0,2,1.06h9.22a2.5,2.5,0,0,0,2-4Z"/></g></g></svg>